<?xml version="1.0" encoding="UTF-8" standalone="no"?>
<!-- Created with Inkscape (http://www.inkscape.org/) -->

<svg
   width="134.00003mm"
   height="134mm"
   viewBox="0 0 134.00003 134"
   version="1.1"
   id="svg1"
   xml:space="preserve"
   inkscape:version="1.3.2 (091e20e, 2023-11-25, custom)"
   sodipodi:docname="website_v5_logo_favicon.svg"
   inkscape:export-filename="website_v5_logo_favicon.svg"
   inkscape:export-xdpi="96"
   inkscape:export-ydpi="96"
   xmlns:inkscape="http://www.inkscape.org/namespaces/inkscape"
   xmlns:sodipodi="http://sodipodi.sourceforge.net/DTD/sodipodi-0.dtd"
   xmlns="http://www.w3.org/2000/svg"
   xmlns:svg="http://www.w3.org/2000/svg"><sodipodi:namedview
     id="namedview1"
     pagecolor="#ffffff"
     bordercolor="#000000"
     borderopacity="0.25"
     inkscape:showpageshadow="2"
     inkscape:pageopacity="0.0"
     inkscape:pagecheckerboard="0"
     inkscape:deskcolor="#d1d1d1"
     inkscape:document-units="mm"
     showguides="true"
     inkscape:zoom="0.79748908"
     inkscape:cx="211.91513"
     inkscape:cy="220.06571"
     inkscape:window-width="1600"
     inkscape:window-height="829"
     inkscape:window-x="-8"
     inkscape:window-y="-8"
     inkscape:window-maximized="1"
     inkscape:current-layer="layer1"
     inkscape:export-bgcolor="#ffffff00" /><defs
     id="defs1" /><g
     inkscape:label="Layer 1"
     inkscape:groupmode="layer"
     id="layer1"
     transform="translate(-142.95655,-190.73148)"><g
       style="fill:#0b1d23;fill-opacity:1;stroke:#0b1d23;stroke-opacity:1"
       id="g1"
       transform="matrix(0.63547964,0,0,0.5644218,99.073836,49.021818)"><g
         id="g7"
         transform="translate(-36.227507,-27.415474)"
         style="stroke-width:0.834867;stroke-dasharray:none;fill:#0b1d23;fill-opacity:1;stroke:#0b1d23;stroke-opacity:1"><ellipse
           style="fill:#0b1d23;fill-opacity:1;stroke:#0b1d23;stroke-width:1.18311;stroke-opacity:1"
           id="path1"
           cx="210.71417"
           cy="397.19153"
           rx="104.84064"
           ry="118.114" /></g></g><g
       id="g10"
       transform="matrix(0.93890216,0,0,0.87967931,172.54898,48.586026)"
       style="fill:#b5d6dd;fill-opacity:1;stroke-width:0.834867;stroke-dasharray:none;stroke:#0b1d23;stroke-opacity:1"><path
         id="path3-2"
         style="fill:#b5d6dd;fill-opacity:1;stroke:#0b1d23;stroke-width:0.834867;stroke-dasharray:none;stroke-opacity:1"
         d="m 98.478714,275.48501 c 0.0163,-0.37698 0.0244,-0.75778 0.0244,-1.14239 0,-4.90867 -1.294,-9.24265 -3.88114,-13.00151 -2.58756,-3.75849 -6.06263,-7.05322 -10.4256,-9.8834 -2.89191,-1.72453 -6.062628,-3.25019 -9.512573,-4.57698 -3.449944,-1.3268 -7.077396,-2.45435 -10.882334,-3.38302 -3.551248,-0.84 -6.747338,-1.7468 -9.58838,-2.71963 -2.790302,-0.97283 -5.174749,-2.05623 -7.153326,-3.25019 -1.978576,-1.14977 -3.5006,-2.4543 -4.565975,-3.91362 -1.014679,-1.45932 -1.521978,-3.09551 -1.521978,-4.90861 0,-1.72464 0.380496,-3.31664 1.141484,-4.77596 0.811726,-1.50354 1.978581,-2.80808 3.500556,-3.91362 1.522019,-1.06132 3.373755,-1.8794 5.555286,-2.45431 2.232226,-0.61909 4.768888,-0.92864 7.610016,-0.92864 3.094515,0 5.783392,0.37589 8.066616,1.12766 2.333443,0.70755 4.286786,1.70253 5.859586,2.98495 1.521714,1.32664 2.663331,2.89653 3.424405,4.70962 0.811727,1.81309 1.268459,3.80306 1.369762,5.96993 h 20.851205 c 0,-4.33373 -0.96411,-8.31371 -2.89191,-11.93985 -1.92779,-3.62619 -4.61667,-6.76593 -8.06618,-9.41925 -3.44995,-2.60906 -7.584786,-4.64329 -12.40449,-6.10259 -4.76862,-1.45931 -10.045071,-2.18897 -15.828458,-2.18897 -5.580735,0 -10.755537,0.64121 -15.524417,1.92364 -4.768881,1.23821 -8.903632,3.0292 -12.404183,5.37294 -3.50059,2.34373 -6.240167,5.17396 -8.218747,8.49056 -1.6039,2.68859 -2.55773,5.62416 -2.86146,8.80675 z" /><path
         id="path1-8"
         style="fill:#b5d6dd;fill-opacity:1;stroke:#0b1d23;stroke-width:0.834867;stroke-dasharray:none;stroke-opacity:1"
         d="m 58.846831,250.75443 c -0.163067,3.78413 -1.144531,6.66458 -2.943737,9.68071 -1.927797,3.27245 -4.616674,6.03623 -8.066618,8.2917 -3.449512,2.29962 -7.559239,4.04604 -12.327859,5.24038 -4.769052,1.14943 -9.969309,1.72452 -15.600307,1.72452 -5.53004,0 -11.0092304,-0.70754 -16.4376664,-2.12264 -5.377653,-1.45924 -10.070482,-3.58189 -14.0783736,-6.36792 -3.804939,-2.74189 -6.823576,-5.96982 -9.055846,-9.68454 -2.18149,-3.71471 -3.27225,-8.07057 -3.27225,-13.06755 h 21.0034426 c 0.10148,2.91849 0.684882,5.41699 1.75025705,7.49548 1.065417,2.07849 2.56202795,3.78113 4.48986595,5.10755 1.877143,1.32679 4.134745,2.29962 6.7728764,2.91886 2.688828,0.61887 5.631354,0.92868 8.827694,0.92868 2.840825,0 5.352204,-0.28754 7.533691,-0.86264 2.232139,-0.57471 4.109288,-1.37056 5.631436,-2.38792 1.521714,-1.01698 2.688874,-2.23321 3.5006,-3.64831 0.811724,-1.45924 1.217373,-3.05132 1.217373,-4.77585 v 0 c 0,-1.72452 -0.354997,-3.33887 -1.065419,-4.84226 -0.659338,-1.5034 -1.800953,-2.91849 -3.424405,-4.24529 -1.674103,-1.28226 -3.855597,-2.45434 -6.544466,-3.51547 -2.638217,-1.10566 -5.935785,-2.12264 -9.892981,-3.05132 -6.138641,-1.45925 -11.5417234,-3.22831 -16.20917035,-5.3068 -4.61666405,-2.07848 -8.39628805,-4.35585 -11.33880565,-6.83207 -2.942475,-2.47661 -5.174749,-5.21812 -6.696729,-8.22533 -1.47128,-3.00705 -2.2069,-6.27947 -2.2069,-9.81721 0,-0.77041 0.0355,-1.52735 0.10643,-2.27081"
         sodipodi:nodetypes="ccccsccccccccscccsscccccccsc" /><path
         style="fill:#b5d6dd;fill-opacity:1;stroke:#0b1d23;stroke-width:0.834867;stroke-dasharray:none;stroke-opacity:1"
         d="m -19.292666,201.50675 78.333755,49.41338 v 0"
         id="path7-4"
         sodipodi:nodetypes="ccc" /></g></g></svg>
